{
  "accessors": [
    {
      "bufferView": 2,
      "componentType": 5126,
      "count": 487,
      "max": [
        1,
        1,
        1.0042999982833862
      ],
      "min": [
        -1,
        -1,
        -0.99968999624252319
      ],
      "type": "VEC3"
    },
    {
      "bufferView": 2,
      "byteOffset": 5844,
      "componentType": 5126,
      "count": 487,
      "max": [
        1,
        0.99518734216690063,
        0.99913954734802246
      ],
      "min": [
        -1,
        -1,
        -1
      ],
      "type": "VEC3"
    },
    {
      "bufferView": 3,
      "componentType": 5126,
      "count": 487,
      "max": [
        1,
        1,
        0.049100521951913834,
        1
      ],
      "min": [
        -1,
        -1,
        -0.049149204045534134,
        1
      ],
      "type": "VEC4"
    },
    {
      "bufferView": 1,
      "componentType": 5126,
      "count": 487,
      "max": [
        1,
        1
      ],
      "min": [
        0,
        0
      ],
      "type": "VEC2"
    },
    {
      "bufferView": 0,
      "componentType": 5125,
      "count": 2475,
      "max": [
        486
      ],
      "min": [
        0
      ],
      "type": "SCALAR"
    },
    {
      "bufferView": 2,
      "byteOffset": 11688,
      "componentType": 5126,
      "count": 38,
      "max": [
        0.98079001903533936,
        1,
        1.0042999982833862
      ],
      "min": [
        -0.38267999887466431,
        -1.9999999494757503e-05,
        0
      ],
      "type": "VEC3"
    },
    {
      "bufferView": 2,
      "byteOffset": 12144,
      "componentType": 5126,
      "count": 38,
      "max": [
        0.92388087511062622,
        0.9807855486869812,
        1
      ],
      "min": [
        -0.19525067508220673,
        0,
        -0.0001600005489308387
      ],
      "type": "VEC3"
    },
    {
      "bufferView": 3,
      "byteOffset": 7792,
      "componentType": 5126,
      "count": 38,
      "max": [
        0.99520218372344971,
        0.19432316720485687,
        0.09881136566400528,
        1
      ],
      "min": [
        0.38083907961845398,
        -0.91948831081390381,
        0,
        1
      ],
      "type": "VEC4"
    },
    {
      "bufferView": 1,
      "byteOffset": 3896,
      "componentType": 5126,
      "count": 38,
      "max": [
        0.98034000396728516,
        0.98277997970581055
      ],
      "min": [
        0.017100000753998756,
        0.017219999805092812
      ],
      "type": "VEC2"
    },
    {
      "bufferView": 0,
      "byteOffset": 9900,
      "componentType": 5125,
      "count": 75,
      "max": [
        37
      ],
      "min": [
        0
      ],
      "type": "SCALAR"
    },
    {
      "bufferView": 2,
      "byteOffset": 12600,
      "componentType": 5126,
      "count": 97,
      "max": [
        0.98079001903533936,
        1,
        1.0042999982833862
      ],
      "min": [
        -0.38267999887466431,
        0,
        0
      ],
      "type": "VEC3"
    },
    {
      "bufferView": 2,
      "byteOffset": 13764,
      "componentType": 5126,
      "count": 97,
      "max": [
        0.95237857103347778,
        0.99518734216690063,
        0.99441730976104736
      ],
      "min": [
        -0.28889566659927368,
        0.061491664499044418,
        0.09754190593957901
      ],
      "type": "VEC3"
    },
    {
      "bufferView": 3,
      "byteOffset": 8400,
      "componentType": 5126,
      "count": 97,
      "max": [
        -0.29026550054550171,
        0.95694613456726074,
        0.074407786130905151,
        1
      ],
      "min": [
        -1,
        -0.29031422734260559,
        -0.074399948120117188,
        1
      ],
      "type": "VEC4"
    },
    {
      "bufferView": 1,
      "byteOffset": 4200,
      "componentType": 5126,
      "count": 97,
      "max": [
        1,
        1
      ],
      "min": [
        0,
        0.49507999420166016
      ],
      "type": "VEC2"
    },
    {
      "bufferView": 0,
      "byteOffset": 10200,
      "componentType": 5125,
      "count": 405,
      "max": [
        96
      ],
      "min": [
        0
      ],
      "type": "SCALAR"
    },
    {
      "bufferView": 2,
      "byteOffset": 14928,
      "componentType": 5126,
      "count": 27,
      "max": [
        0.98079001903533936,
        1,
        1.0042999982833862
      ],
      "min": [
        -0.38267999887466431,
        -0.0010499999625608325,
        -0.00054999999701976776
      ],
      "type": "VEC3"
    },
    {
      "bufferView": 2,
      "byteOffset": 15252,
      "componentType": 5126,
      "count": 27,
      "max": [
        0.19391545653343201,
        0.00043001284939236939,
        0.0090002678334712982
      ],
      "min": [
        -0.92726767063140869,
        -0.9810175895690918,
        -0.99999994039535522
      ],
      "type": "VEC3"
    },
    {
      "bufferView": 3,
      "byteOffset": 9952,
      "componentType": 5126,
      "count": 27,
      "max": [
        0.93676072359085083,
        0.47731894254684448,
        0.00038979219971224666,
        1
      ],
      "min": [
        -0.085096389055252075,
        -0.43927165865898132,
        -0.99557936191558838,
        1
      ],
      "type": "VEC4"
    },
    {
      "bufferView": 1,
      "byteOffset": 4976,
      "componentType": 5126,
      "count": 27,
      "max": [
        0.98495000600814819,
        0.98285001516342163
      ],
      "min": [
        0.018409999087452888,
        0.02322000078856945
      ],
      "type": "VEC2"
    },
    {
      "bufferView": 0,
      "byteOffset": 11820,
      "componentType": 5125,
      "count": 75,
      "max": [
        26
      ],
      "min": [
        0
      ],
      "type": "SCALAR"
    },
    {
      "bufferView": 2,
      "byteOffset": 15576,
      "componentType": 5126,
      "count": 42,
      "max": [
        0.95105999708175659,
        1,
        1
      ],
      "min": [
        -0.95105999708175659,
        -1,
        -1
      ],
      "type": "VEC3"
    },
    {
      "bufferView": 2,
      "byteOffset": 16080,
      "componentType": 5126,
      "count": 42,
      "max": [
        0.95106101036071777,
        1,
        1
      ],
      "min": [
        -0.95106101036071777,
        -1,
        -1
      ],
      "type": "VEC3"
    },
    {
      "bufferView": 0,
      "byteOffset": 12120,
      "componentType": 5125,
      "count": 240,
      "max": [
        41
      ],
      "min": [
        0
      ],
      "type": "SCALAR"
    }
  ],
  "asset": {
    "generator": "Sketchfab (OSG glTF plugin)",
    "version": "2.0"
  },
  "bufferViews": [
    {
      "buffer": 0,
      "byteLength": 13080,
      "byteOffset": 0,
      "name": "floatBufferViews",
      "target": 34963
    },
    {
      "buffer": 0,
      "byteLength": 5192,
      "byteOffset": 13080,
      "byteStride": 8,
      "name": "floatBufferViews",
      "target": 34962
    },
    {
      "buffer": 0,
      "byteLength": 16584,
      "byteOffset": 18272,
      "byteStride": 12,
      "name": "floatBufferViews",
      "target": 34962
    },
    {
      "buffer": 0,
      "byteLength": 10384,
      "byteOffset": 34856,
      "byteStride": 16,
      "name": "floatBufferViews",
      "target": 34962
    }
  ],
  "buffers": [
    {
      "byteLength": 45240,
      "uri": "scene.bin"
    }
  ],
  "images": [
    {
      "uri": "textures/insideEarth_baseColor.jpeg"
    },
    {
      "uri": "textures/Material_baseColor.jpeg"
    }
  ],
  "materials": [
    {
      "doubleSided": true,
      "emissiveFactor": [
        0.87999999520000005,
        0.87999999520000005,
        0.87999999520000005
      ],
      "name": "Material.001",
      "pbrMetallicRoughness": {
        "baseColorFactor": [
          0.7969138026,
          0.74708950519999995,
          0.80000007149999997,
          1
        ],
        "metallicFactor": 0,
        "roughnessFactor": 0.59999999999999998
      }
    },
    {
      "doubleSided": true,
      "emissiveFactor": [
        0,
        0,
        0
      ],
      "name": "Material",
      "pbrMetallicRoughness": {
        "baseColorFactor": [
          1,
          1,
          1,
          1
        ],
        "baseColorTexture": {
          "index": 1,
          "texCoord": 0
        },
        "metallicFactor": 0,
        "roughnessFactor": 0.59999999999999998
      }
    },
    {
      "doubleSided": true,
      "emissiveFactor": [
        0,
        0,
        0
      ],
      "name": "insideEarth",
      "pbrMetallicRoughness": {
        "baseColorFactor": [
          1,
          1,
          1,
          1
        ],
        "baseColorTexture": {
          "index": 0,
          "texCoord": 0
        },
        "metallicFactor": 0,
        "roughnessFactor": 0.59999999999999998
      }
    }
  ],
  "meshes": [
    {
      "name": "Sphere_0",
      "primitives": [
        {
          "attributes": {
            "NORMAL": 1,
            "POSITION": 0,
            "TANGENT": 2,
            "TEXCOORD_0": 3
          },
          "indices": 4,
          "material": 1,
          "mode": 4
        }
      ]
    },
    {
      "name": "Sphere.002_0",
      "primitives": [
        {
          "attributes": {
            "NORMAL": 6,
            "POSITION": 5,
            "TANGENT": 7,
            "TEXCOORD_0": 8
          },
          "indices": 9,
          "material": 2,
          "mode": 4
        }
      ]
    },
    {
      "name": "Sphere.001_0",
      "primitives": [
        {
          "attributes": {
            "NORMAL": 11,
            "POSITION": 10,
            "TANGENT": 12,
            "TEXCOORD_0": 13
          },
          "indices": 14,
          "material": 1,
          "mode": 4
        }
      ]
    },
    {
      "name": "Sphere.003_0",
      "primitives": [
        {
          "attributes": {
            "NORMAL": 16,
            "POSITION": 15,
            "TANGENT": 17,
            "TEXCOORD_0": 18
          },
          "indices": 19,
          "material": 2,
          "mode": 4
        }
      ]
    },
    {
      "name": "Icosphere_0",
      "primitives": [
        {
          "attributes": {
            "NORMAL": 21,
            "POSITION": 20
          },
          "indices": 22,
          "material": 0,
          "mode": 4
        }
      ]
    }
  ],
  "nodes": [
    {
      "children": [
        1
      ],
      "name": "RootNode (gltf orientation matrix)",
      "rotation": [
        -0.70710678118654746,
        -0,
        -0,
        0.70710678118654757
      ]
    },
    {
      "children": [
        2
      ],
      "name": "RootNode (model correction matrix)"
    },
    {
      "children": [
        3,
        9,
        15
      ],
      "name": "Root"
    },
    {
      "children": [
        4,
        6
      ],
      "name": "Sphere"
    },
    {
      "children": [
        5
      ],
      "name": "Geode"
    },
    {
      "mesh": 0,
      "name": "Sphere_0"
    },
    {
      "children": [
        7
      ],
      "name": "Sphere.002"
    },
    {
      "children": [
        8
      ],
      "name": "Geode"
    },
    {
      "mesh": 1,
      "name": "Sphere.002_0"
    },
    {
      "children": [
        10,
        12
      ],
      "matrix": [
        1,
        0,
        0,
        0,
        0,
        1,
        0,
        0,
        0,
        0,
        1,
        0,
        0.42210000000000003,
        1.9468999999999999,
        1.12371,
        1
      ],
      "name": "Sphere.001"
    },
    {
      "children": [
        11
      ],
      "name": "Geode"
    },
    {
      "mesh": 2,
      "name": "Sphere.001_0"
    },
    {
      "children": [
        13
      ],
      "name": "Sphere.003"
    },
    {
      "children": [
        14
      ],
      "name": "Geode"
    },
    {
      "mesh": 3,
      "name": "Sphere.003_0"
    },
    {
      "children": [
        16
      ],
      "matrix": [
        0.28698000000000007,
        0,
        0,
        0,
        0,
        0.28698000000000007,
        0,
        0,
        0,
        0,
        0.28698000000000007,
        0,
        0,
        0,
        0,
        1
      ],
      "name": "Icosphere"
    },
    {
      "children": [
        17
      ],
      "name": "Geode"
    },
    {
      "mesh": 4,
      "name": "Icosphere_0"
    }
  ],
  "samplers": [
    {
      "magFilter": 9729,
      "minFilter": 9987,
      "wrapS": 10497,
      "wrapT": 10497
    }
  ],
  "scene": 0,
  "scenes": [
    {
      "name": "OSG_Scene",
      "nodes": [
        0
      ]
    }
  ],
  "textures": [
    {
      "sampler": 0,
      "source": 0
    },
    {
      "sampler": 0,
      "source": 1
    }
  ]
}

